<?xml version="1.0" encoding="utf-8"?>
<!-- Generator: Adobe Illustrator 21.0.2, SVG Export Plug-In . SVG Version: 6.00 Build 0)  -->
<svg version="1.1" id="Layer_1" xmlns="http://www.w3.org/2000/svg" xmlns:xlink="http://www.w3.org/1999/xlink" x="0px" y="0px"
	 viewBox="0 0 512 512" style="enable-background:new 0 0 512 512;" xml:space="preserve">
<g>
	<g>
		<path d="M450,179.7c5.2-11.4,7.8-23.7,7.8-36.4c0-48.7-39.6-88.3-88.3-88.3c-14.7,0-28.9,3.6-41.7,10.5
			C311.2,48,288.4,38.2,264,38.2c-31.9,0-61,17.2-76.6,44.4c-7.1-1.8-14.4-2.7-21.9-2.7c-48.7,0-88.3,39.6-88.3,88.3
			c0,9,1.3,17.8,4,26.3c-19.3,16.7-30.6,41.1-30.6,66.8c0,46.5,36.1,84.7,81.8,88.1c-0.1,1.7-0.1,3.4-0.1,5.1
			c0,48.7,39.6,88.3,88.3,88.3c28.9,0,55.9-14.4,72.3-37.6c16.4,16.5,38.9,26.1,62.6,26.1c46.3,0,84.4-35.8,88-81.2
			c39.7-9,68.6-44.6,68.6-86.1C512,225,486.2,191,450,179.7z M432.2,331.3c-5.2,0.6-9,5.1-8.9,10.3c0,0.4,0,0.9,0,1.3
			c0,37.4-30.5,67.9-67.9,67.9c-22.2,0-43-10.9-55.7-29.1c-2.1-3-5.6-4.6-9.2-4.3c-3.6,0.3-6.8,2.5-8.4,5.8
			c-11.1,23.8-35.3,39.2-61.5,39.2c-37.4,0-67.9-30.5-67.9-67.9c0-4.5,0.4-8.9,1.3-13.3c0.6-3.1-0.2-6.3-2.3-8.7
			c-1.9-2.2-4.7-3.5-7.7-3.5c-0.2,0-0.4,0-0.6,0c-1.5,0.1-3,0.1-4.4,0.1c-37.4,0-67.9-30.5-67.9-67.9c0-21.8,10.6-42.4,28.3-55.1
			c3.8-2.8,5.3-7.8,3.5-12.2c-3.4-8.2-5.1-16.9-5.1-25.9c0-37.4,30.5-67.9,67.9-67.9c8.1,0,16,1.4,23.5,4.2
			c5.1,1.9,10.7-0.5,12.9-5.4c10.9-24.6,35.3-40.5,62.1-40.5c21.2,0,40.7,9.6,53.7,26.4c3.3,4.3,9.3,5.2,13.8,2.2
			c11.3-7.6,24.4-11.7,38.1-11.7c37.4,0,67.9,30.5,67.9,67.9c0,13.5-3.9,26.5-11.4,37.7c-2,2.9-2.3,6.6-0.8,9.8
			c1.4,3.2,4.4,5.4,7.9,5.9c33.3,4.6,58.5,33.5,58.5,67.2C491.6,298.2,466.1,327.1,432.2,331.3z"/>
	</g>
</g>
<g>
	<g>
		<path d="M113.6,399c0-21.3-17.4-38.7-38.7-38.7c-10.7,0-20.7,4.3-27.9,11.9c-2.7-0.6-5.5-0.9-8.3-0.9C17.4,371.2,0,388.6,0,409.9
			c0,19.4,14.3,35.5,33,38.3c5.4,15.1,19.8,25.6,36.4,25.6c21.3,0,38.7-17.4,38.7-38.7c0-4.5-0.8-8.8-2.2-13
			C110.8,415.5,113.6,407.4,113.6,399z M87,412.7c-3.7,3.3-4.5,8.7-2,13c1.7,2.9,2.7,6.1,2.7,9.5c0,10.1-8.2,18.3-18.3,18.3
			c-9.3,0-17.2-7-18.2-16.2c-0.6-5.2-5-9.1-10.1-9.1c-0.3,0-0.6,0-0.9,0c-0.6,0-1.1,0.1-1.5,0.1c-10.1,0-18.3-8.2-18.3-18.3
			c0-10.1,8.2-18.3,18.3-18.3c2.7,0,5.2,0.6,7.6,1.7c4.7,2.2,10.2,0.5,12.9-3.9c3.4-5.5,9.2-8.7,15.6-8.7c10.1,0,18.3,8.2,18.3,18.3
			C93.2,404.2,90.9,409.2,87,412.7z"/>
	</g>
</g>
<g>
	<g>
		<g>
			<path d="M379.4,366.8c-6.9,6.7-16,10.4-25.7,10.4c-6.4,0-12.7-1.7-18.2-4.8c-4.9-2.8-11.1-1.1-13.9,3.8
				c-2.8,4.9-1.1,11.1,3.8,13.9c8.6,4.9,18.4,7.5,28.4,7.5c15,0,29.2-5.8,39.9-16.2c4-3.9,4.1-10.4,0.2-14.4
				C389.9,363,383.5,362.9,379.4,366.8z"/>
			<path d="M401.6,335.6c-5.6-0.6-10.6,3.4-11.3,9c-0.1,0.8-0.2,1.6-0.3,2.4c-1,5.5,2.7,10.8,8.2,11.8c0.6,0.1,1.2,0.2,1.8,0.2
				c4.8,0,9.1-3.5,10-8.4c0.2-1.2,0.4-2.5,0.5-3.7C411.2,341.3,407.2,336.2,401.6,335.6z"/>
		</g>
	</g>
</g>
</svg>
