<?xml version="1.0" encoding="iso-8859-1"?>
<!-- Generator: Adobe Illustrator 17.1.0, SVG Export Plug-In . SVG Version: 6.00 Build 0)  -->
<!DOCTYPE svg PUBLIC "-//W3C//DTD SVG 1.1//EN" "http://www.w3.org/Graphics/SVG/1.1/DTD/svg11.dtd">
<svg version="1.1" id="Capa_1" xmlns="http://www.w3.org/2000/svg" xmlns:xlink="http://www.w3.org/1999/xlink" x="0px" y="0px"
	 viewBox="0 0 495.053 495.053" style="enable-background:new 0 0 495.053 495.053;" xml:space="preserve">
<path d="M371.399,186.31c0-11.28-4.516-21.521-11.828-29.026c0.224-0.832,0.355-1.703,0.355-2.606V112.4
	c0-61.978-50.423-112.4-112.4-112.4s-112.4,50.422-112.4,112.4v42.279c0,0.9,0.13,1.768,0.353,2.598
	c-7.313,7.506-11.826,17.752-11.826,29.033c0,22.404,17.791,40.721,39.986,41.59l54.973,245.089c0.052,0.23,0.111,0.459,0.18,0.685
	c3.896,12.987,15.175,21.379,28.734,21.379s24.838-8.392,28.734-21.379c0.068-0.226,0.128-0.455,0.18-0.685L331.413,227.9
	C353.609,227.031,371.399,208.714,371.399,186.31z M257.014,468.216c-2.065,6.337-7.768,6.836-9.487,6.836s-7.422-0.499-9.487-6.836
	l-53.893-240.275h14.981l-0.001,33.325c0,16.101,13.1,29.2,29.2,29.2s29.2-13.099,29.2-29.2v-33.325h53.381L257.014,468.216z
	 M329.768,207.941h-4.445c-0.616-0.118-1.243-0.192-1.882-0.192h-75.915c-5.522,0-10,4.477-10,10c0,0.032,0.005,0.064,0.005,0.096
	c0,0.032-0.005,0.064-0.005,0.096v43.325c0,5.073-4.127,9.2-9.2,9.2s-9.2-4.127-9.2-9.2l0.001-43.325
	c0-0.036-0.005-0.071-0.005-0.107c0-0.029,0.004-0.057,0.004-0.086c0-5.523-4.478-10-10-10h-37.515
	c-0.638,0-1.266,0.074-1.882,0.192h-4.445c-11.928,0-21.632-9.704-21.632-21.631s9.704-21.631,21.632-21.631h114.451
	c5.522,0,10-4.477,10-10s-4.478-10-10-10H156.582c-0.496,0-0.979,0.049-1.456,0.118V112.4c0-50.95,41.45-92.4,92.4-92.4
	s92.4,41.45,92.4,92.4v33.538c-3.253-0.819-6.655-1.259-10.159-1.259c-5.252,0-9.609,4.063-9.976,9.302
	c-0.366,5.24,3.383,9.87,8.584,10.601l7.973,1.12c8.721,2.791,15.051,10.974,15.051,20.608
	C351.399,198.238,341.695,207.941,329.768,207.941z"/>
<g>
</g>
<g>
</g>
<g>
</g>
<g>
</g>
<g>
</g>
<g>
</g>
<g>
</g>
<g>
</g>
<g>
</g>
<g>
</g>
<g>
</g>
<g>
</g>
<g>
</g>
<g>
</g>
<g>
</g>
</svg>
