<?xml version="1.0" encoding="iso-8859-1"?>
<!-- Generator: Adobe Illustrator 18.0.0, SVG Export Plug-In . SVG Version: 6.00 Build 0)  -->
<!DOCTYPE svg PUBLIC "-//W3C//DTD SVG 1.1//EN" "http://www.w3.org/Graphics/SVG/1.1/DTD/svg11.dtd">
<svg version="1.1" id="Capa_1" xmlns="http://www.w3.org/2000/svg" xmlns:xlink="http://www.w3.org/1999/xlink" x="0px" y="0px"
	 viewBox="0 0 457.562 457.562" style="enable-background:new 0 0 457.562 457.562;" xml:space="preserve">
<g>
	<path d="M457.127,265.026l-27.439-53.99c-0.373-0.734-0.964-1.336-1.692-1.722l-50.227-26.62l13.256-8.01
		c1.04-0.629,1.737-1.695,1.897-2.899c0.159-1.204-0.237-2.415-1.078-3.292c0,0-40.841-42.612-40.91-42.676l-46.902-42.478
		c-1.297-1.175-3.205-1.369-4.712-0.483l-52.121,30.631l-54.604-28.942c-1.149-0.609-2.523-0.621-3.685-0.032l-55.75,28.31
		c-0.713,0.362-1.301,0.93-1.688,1.63l-27.43,49.56c-1.054,1.903-0.392,4.301,1.49,5.395l23.385,13.593l-117.21,68.883
		c-1.002,0.589-1.698,1.584-1.908,2.727l-9.734,53.098c-0.218,1.188,0.113,2.412,0.9,3.328l53.982,62.832
		c0.784,0.912,1.902,1.394,3.036,1.394c0.709,0,1.424-0.188,2.066-0.576l195.431-118.095l116.42,67.688
		c0.623,0.362,1.317,0.542,2.011,0.542c0.785,0,1.568-0.23,2.244-0.688l79.649-53.979
		C457.475,269.019,458.041,266.823,457.127,265.026z M418.169,213.16l-47.924,30.431l-48.388-27.111l47.93-28.963L418.169,213.16z
		 M382.611,170.419L61.639,364.376l-3.079-60.809l288.987-169.736L382.611,170.419z M300.839,91.241l40.687,36.849L55.256,296.23
		l-35.307-39.913L300.839,91.241z M190.683,92.584l48.415,25.662l-45.199,26.563l-50.433-28.249L190.683,92.584z M112.939,164.457
		l23.586-42.614l49.385,27.662l-49.076,28.842L112.939,164.457z M16.186,264.138l34.332,38.81l2.878,56.835L8.279,307.269
		L16.186,264.138z M313.982,221.238l52.502,29.417l3.074,63.004l-106.272-61.788L313.982,221.238z M377.561,313.513l-3.08-63.135
		l50.07-31.794l23.847,46.922L377.561,313.513z"/>
	<path d="M131.889,225.37c2.294,0,4.554-0.62,6.535-1.793c1.477-0.874,2.71-2.003,3.687-3.294l2.144,3.622
		c1.362,2.301,0.598,5.281-1.704,6.644c-1.562,0.924-3.491,0.902-5.035-0.055c-1.876-1.166-4.343-0.587-5.507,1.29
		c-1.165,1.877-0.588,4.343,1.29,5.507c2.083,1.293,4.431,1.94,6.781,1.94c2.259,0,4.519-0.599,6.545-1.798
		c2.954-1.748,5.05-4.542,5.903-7.866c0.853-3.325,0.359-6.783-1.389-9.736l-7.676-12.968c-0.06-0.102-0.138-0.185-0.206-0.28
		c-0.106-0.203-0.202-0.409-0.319-0.608c-2.303-3.891-6.543-6.307-11.066-6.307c-2.295,0-4.555,0.62-6.536,1.793
		c-6.098,3.608-8.122,11.505-4.514,17.602C123.124,222.953,127.364,225.37,131.889,225.37z M129.41,208.346
		c0.748-0.443,1.6-0.678,2.461-0.678c1.736,0,3.299,0.89,4.182,2.381c1.362,2.302,0.598,5.281-1.703,6.644
		c-0.749,0.443-1.6,0.678-2.461,0.678c-1.736,0-3.3-0.891-4.183-2.382C126.345,212.688,127.109,209.707,129.41,208.346z"/>
	<path d="M156.727,210.669c2.294,0,4.555-0.62,6.536-1.793c1.477-0.874,2.709-2.003,3.686-3.293l2.143,3.622
		c0.66,1.115,0.846,2.42,0.524,3.675c-0.322,1.255-1.113,2.31-2.228,2.969c-1.562,0.924-3.49,0.902-5.035-0.055
		c-1.876-1.165-4.343-0.587-5.507,1.29c-1.165,1.877-0.588,4.343,1.29,5.507c2.083,1.293,4.431,1.94,6.781,1.94
		c2.259,0,4.519-0.599,6.545-1.798c6.098-3.608,8.122-11.505,4.514-17.603l-7.675-12.968c-0.06-0.101-0.137-0.183-0.204-0.277
		c-0.107-0.204-0.203-0.411-0.322-0.612c-2.302-3.89-6.543-6.307-11.066-6.307c-2.294,0-4.555,0.62-6.536,1.793
		c-6.098,3.608-8.122,11.505-4.514,17.603C147.962,208.252,152.203,210.669,156.727,210.669z M154.248,193.645
		c0.749-0.443,1.601-0.678,2.462-0.678c1.736,0,3.3,0.891,4.182,2.381c1.362,2.302,0.598,5.281-1.703,6.644
		c-0.749,0.443-1.601,0.678-2.462,0.678c-1.736,0-3.3-0.891-4.182-2.381C151.183,197.987,151.947,195.007,154.248,193.645z"/>
	<path d="M181.566,195.969c2.294,0,4.555-0.62,6.536-1.793c1.477-0.874,2.709-2.003,3.686-3.293l2.143,3.622
		c0.66,1.115,0.846,2.42,0.524,3.675c-0.322,1.255-1.113,2.309-2.228,2.969c-1.562,0.926-3.49,0.904-5.034-0.056
		c-1.876-1.166-4.343-0.588-5.508,1.289s-0.588,4.343,1.289,5.508c2.083,1.294,4.432,1.941,6.782,1.941
		c2.259,0,4.519-0.599,6.545-1.798c2.954-1.748,5.05-4.542,5.902-7.866c0.853-3.325,0.359-6.783-1.389-9.736l-7.675-12.968
		c-0.06-0.101-0.137-0.183-0.204-0.277c-0.107-0.204-0.203-0.411-0.322-0.612c-2.302-3.89-6.543-6.307-11.066-6.307
		c-2.294,0-4.555,0.62-6.536,1.793c-6.098,3.608-8.122,11.505-4.514,17.603C172.801,193.552,177.042,195.969,181.566,195.969z
		 M179.087,178.945c0.749-0.443,1.601-0.678,2.462-0.678c1.736,0,3.3,0.891,4.182,2.381c1.362,2.302,0.598,5.281-1.703,6.644
		c-0.749,0.443-1.601,0.678-2.462,0.678c-1.736,0-3.3-0.891-4.182-2.381C176.022,183.286,176.786,180.307,179.087,178.945z"/>
	<path d="M215.374,175.96c2.294,0,4.555-0.62,6.536-1.793c1.477-0.874,2.709-2.003,3.686-3.293l2.143,3.622
		c1.362,2.302,0.598,5.281-1.703,6.644c-1.562,0.924-3.49,0.903-5.035-0.056c-1.875-1.163-4.342-0.588-5.508,1.289
		c-1.165,1.877-0.588,4.343,1.289,5.508c2.083,1.293,4.432,1.941,6.782,1.941c2.259,0,4.519-0.599,6.546-1.798
		c6.098-3.608,8.122-11.505,4.514-17.603l-7.675-12.969c-0.06-0.102-0.138-0.185-0.206-0.279c-0.106-0.203-0.202-0.409-0.32-0.609
		c-2.302-3.89-6.543-6.307-11.066-6.307c-2.294,0-4.555,0.62-6.536,1.793c-6.098,3.608-8.122,11.505-4.514,17.603
		C206.609,173.543,210.851,175.96,215.374,175.96z M212.896,158.936c0.749-0.443,1.601-0.678,2.462-0.678
		c1.736,0,3.3,0.891,4.182,2.381c1.362,2.302,0.598,5.281-1.703,6.644c-0.749,0.443-1.601,0.678-2.462,0.678
		c-1.736,0-3.3-0.891-4.182-2.381C209.83,163.278,210.595,160.298,212.896,158.936z"/>
	<circle cx="211.358" cy="195.29" r="3.869"/>
</g>
<g>
</g>
<g>
</g>
<g>
</g>
<g>
</g>
<g>
</g>
<g>
</g>
<g>
</g>
<g>
</g>
<g>
</g>
<g>
</g>
<g>
</g>
<g>
</g>
<g>
</g>
<g>
</g>
<g>
</g>
</svg>
