<?xml version="1.0" encoding="iso-8859-1"?>
<!-- Generator: Adobe Illustrator 19.0.0, SVG Export Plug-In . SVG Version: 6.00 Build 0)  -->
<svg version="1.1" id="Layer_1" xmlns="http://www.w3.org/2000/svg" xmlns:xlink="http://www.w3.org/1999/xlink" x="0px" y="0px"
	 viewBox="0 0 512 512" style="enable-background:new 0 0 512 512;" xml:space="preserve">
<g>
	<g>
		<path d="M451.136,359.405c10.317-18.509,7.361-34.916,2.762-45.766c-3.32-7.832-7.931-13.786-10.98-17.203
			c6.456-46.802-19.938-71.115-29.988-78.542c-2.684-28.144-20.121-44.118-29.927-50.979c5.168-13.223,13.472-43.159-3.34-70.057
			c-16.766-26.825-42.935-32.685-54.996-33.936c-1.938-6.475-5.762-17.369-12.131-28.253
			c-13.699-23.408-32.457-35.391-54.292-34.634c-44.764,1.544-65.256,53.987-70.143,68.746
			c-35.788,16.388-38.295,50.187-39.971,72.792c-0.717,9.66-1.458,19.65-4.575,23.364c-12.306,14.661-12.589,33.221-11.852,42.138
			c-21.104,16.949-20.434,42.123-18.67,54.026c-24.003,12.961-32.282,33.424-34.929,48.847c-1.895,11.048-1.18,20.928-0.354,26.884
			c-34.409,23.529-23.895,70.092-23.411,72.149c0.084,0.354,0.193,0.703,0.324,1.043c0.674,1.746,16.948,42.15,75.855,50.056
			c5.819,6.433,22.087,21.134,46.71,17.564c8.337,10.391,32.646,34.36,79.5,34.359c3.55,0,7.233-0.138,11.045-0.43
			c5.627,0.056,54.193-0.39,83.904-35.942c10.524,0.19,36.098-2.181,51.497-26.789c10.375-1.417,35.127-7.731,49.744-35.864
			C465.831,388.129,456.876,368.274,451.136,359.405z M438.768,405.621c-13.919,26.79-39.468,27.654-40.504,27.677
			c-2.915,0.029-5.583,1.647-6.956,4.221c-13.423,25.156-41.137,22.14-42.277,22.004c-2.839-0.366-5.662,0.819-7.388,3.105
			c-25.462,33.736-73.435,33.005-73.888,32.989c-0.282-0.008-0.565,0-0.846,0.022c-56.655,4.488-78.517-29.514-79.397-30.927
			c-1.469-2.419-4.075-3.838-6.817-3.838c-0.627,0-1.262,0.074-1.891,0.228c-23.33,5.69-37.188-12.507-37.741-13.248
			c-1.319-1.814-3.341-2.988-5.569-3.236c-48.81-5.424-63.848-35.588-65.75-39.882c-1.092-5.295-7.396-41.489,20.671-56.987
			c3.168-1.749,4.762-5.411,3.882-8.92c-0.03-0.118-2.877-12.142-0.467-26.184c3.184-18.561,13.768-31.952,31.461-39.799
			c3.616-1.604,5.502-5.644,4.443-9.455c-0.346-1.243-8.2-30.628,14.89-46.022c2.687-1.792,4.029-5.027,3.398-8.195
			c-0.039-0.2-3.665-20.379,7.752-33.982c6.427-7.656,7.279-19.141,8.265-32.439c1.692-22.813,3.61-48.67,33.56-60.694
			c2.298-0.922,4.04-2.868,4.71-5.251c0.167-0.596,17.167-59.475,56.488-60.831c38.49-1.329,51.762,55.752,51.887,56.319
			c0.828,3.74,4.21,6.363,8.027,6.248c0.301-0.012,30.334-0.576,47.426,26.769c16.985,27.175-0.125,60.713-0.291,61.033
			c-1.008,1.912-1.196,4.152-0.522,6.205c0.674,2.053,2.152,3.745,4.097,4.689c0.265,0.129,26.493,13.214,27.854,45.409
			c0.113,2.69,1.614,5.163,3.928,6.54c1.38,0.821,33.71,20.654,25.368,68.57c-0.472,2.715,0.489,5.481,2.545,7.316
			c1.011,0.904,24.568,22.454,5.8,50.282c-2.067,3.065-1.795,7.107,0.711,9.825C436.249,365.879,450.771,382.517,438.768,405.621z"
			/>
	</g>
</g>
<g>
	<g>
		<path d="M256.732,140.708c-1.196-4.24-5.608-6.706-9.841-5.513c-10.004,2.82-26.867,14.286-26.306,38.298
			c-11.442,2.326-25.737,10.464-30.207,31.113c-0.933,4.307,1.803,8.552,6.107,9.485c0.569,0.123,1.136,0.182,1.695,0.182
			c3.674,0,6.979-2.553,7.788-6.29c4.259-19.67,20.992-19.36,22.81-19.272c2.443,0.177,4.85-0.798,6.492-2.628
			c1.643-1.83,2.35-4.316,1.915-6.738c-4.05-22.562,12.171-28.226,14.097-28.814C255.483,149.311,257.921,144.927,256.732,140.708z"
			/>
	</g>
</g>
<g>
	<g>
		<path d="M338.894,282.339c-4.988-5.325-11.011-8.062-15.851-9.469c1.012-22.521-14.74-35.985-24.177-40.227
			c-4.013-1.806-8.765-0.027-10.571,3.992c-1.806,4.018-0.04,8.727,3.977,10.532c1.914,0.895,18.568,9.359,14.112,30.549
			c-0.486,2.311,0.078,4.719,1.539,6.575c1.46,1.856,3.669,2.969,6.03,3.038c0.08,0.002,8.211,0.481,13.301,5.915
			c3.245,3.465,4.774,8.516,4.543,15.015c-0.156,4.403,3.285,8.098,7.688,8.254c0.097,0.003,0.193,0.005,0.288,0.005
			c4.274,0,7.813-3.387,7.965-7.692C348.126,297.93,345.15,289.018,338.894,282.339z"/>
	</g>
</g>
<g>
	<g>
		<path d="M218.7,281.489l-3.153-15.637c-0.933,0.188-21.665,4.657-26.798,29.303c-10.876,5.416-24.514,18.847-19.24,42.4
			c0.831,3.712,4.124,6.235,7.776,6.235c0.577,0,1.163-0.063,1.75-0.195c4.298-0.964,7.003-5.228,6.039-9.526
			c-1.871-8.353-0.401-14.873,4.491-19.934c3.945-4.081,8.741-5.71,8.739-5.71c3.01-0.945,5.179-3.575,5.535-6.709
			c1.902-16.753,13.634-19.942,14.966-20.25L218.7,281.489z"/>
	</g>
</g>
<g>
	<g>
		<path d="M141.097,376.506c-7.55-8.673-20.75-9.587-29.425-2.038c-4.202,3.658-6.727,8.733-7.112,14.29
			c-0.385,5.559,1.418,10.933,5.075,15.134c3.657,4.203,8.733,6.728,14.29,7.113c0.492,0.034,0.984,0.051,1.472,0.051
			c5.029,0,9.833-1.793,13.664-5.127c4.201-3.657,6.727-8.732,7.112-14.29C146.558,386.082,144.754,380.708,141.097,376.506z
			 M128.587,393.899c-0.989,0.86-2.239,1.286-3.56,1.194c-1.307-0.09-2.5-0.685-3.36-1.673c-0.86-0.988-1.284-2.251-1.193-3.558
			c0.09-1.307,0.685-2.5,1.672-3.36c0.927-0.807,2.075-1.203,3.217-1.203c1.371,0,2.734,0.57,3.702,1.682h0.001
			c0.86,0.988,1.284,2.251,1.193,3.558C130.167,391.846,129.574,393.038,128.587,393.899z"/>
	</g>
</g>
<g>
	<g>
		<path d="M343.15,121.28h0.001c-7.551-8.674-20.75-9.587-29.425-2.038c-4.202,3.658-6.727,8.733-7.112,14.29
			c-0.385,5.559,1.418,10.933,5.075,15.134c3.657,4.204,8.733,6.729,14.289,7.114c0.492,0.034,0.984,0.051,1.472,0.051
			c5.029,0,9.833-1.793,13.664-5.127c4.201-3.657,6.727-8.732,7.112-14.29C348.611,130.857,346.808,125.482,343.15,121.28z
			 M330.639,138.674c-0.989,0.86-2.237,1.288-3.56,1.194c-1.307-0.09-2.5-0.685-3.36-1.673s-1.284-2.251-1.193-3.558
			c0.09-1.307,0.685-2.501,1.673-3.362c0.927-0.807,2.075-1.203,3.217-1.203c1.371,0,2.734,0.57,3.702,1.682h0.001
			c0.86,0.988,1.284,2.251,1.193,3.558C332.221,136.621,331.626,137.814,330.639,138.674z"/>
	</g>
</g>
<g>
	<g>
		<path d="M267.939,59.412c-0.805-4.331-4.978-7.192-9.299-6.384c-1.591,0.296-39.065,7.717-49.263,49.315
			c-1.05,4.277,1.569,8.596,5.848,9.644c0.638,0.156,1.276,0.232,1.905,0.232c3.588,0,6.847-2.438,7.74-6.079
			c7.683-31.341,35.469-37.189,36.719-37.436C265.901,67.883,268.742,63.73,267.939,59.412z"/>
	</g>
</g>
<g>
	<g>
		<path d="M299.287,431.005c-2.101-3.872-6.942-5.309-10.814-3.205c-14.194,7.706-26.58,9.888-36.824,6.485
			c-12.857-4.272-18.531-16.309-18.567-16.384c-0.973-2.186-2.877-3.82-5.185-4.45c-26.173-7.146-30.76-34.129-30.949-35.319
			c-0.667-4.341-4.723-7.324-9.065-6.676c-4.356,0.653-7.359,4.713-6.706,9.069c0.227,1.513,5.784,36.102,39.173,47.3
			c3.366,5.618,11.513,16.591,25.989,21.506c4.868,1.653,9.966,2.479,15.276,2.479c10.677,0,22.212-3.337,34.466-9.989
			C299.954,439.718,301.388,434.876,299.287,431.005z"/>
	</g>
</g>
<g>
	<g>
		<path d="M369.444,351.44c-0.216-4.399-3.94-7.795-8.359-7.574c-4.399,0.217-7.79,3.958-7.574,8.358
			c1.795,36.461-18.987,46.449-20.035,46.927c-4.004,1.745-5.864,6.394-4.154,10.425c1.289,3.039,4.24,4.864,7.345,4.864
			c1.039,0,2.095-0.204,3.111-0.635C341.088,413.25,371.818,399.652,369.444,351.44z"/>
	</g>
</g>
<g>
</g>
<g>
</g>
<g>
</g>
<g>
</g>
<g>
</g>
<g>
</g>
<g>
</g>
<g>
</g>
<g>
</g>
<g>
</g>
<g>
</g>
<g>
</g>
<g>
</g>
<g>
</g>
<g>
</g>
</svg>
