<?xml version="1.0" encoding="utf-8"?>
<!-- Generator: Adobe Illustrator 21.1.0, SVG Export Plug-In . SVG Version: 6.00 Build 0)  -->
<svg version="1.1" id="Layer_1" xmlns="http://www.w3.org/2000/svg" xmlns:xlink="http://www.w3.org/1999/xlink" x="0px" y="0px"
	 viewBox="0 0 170 56" style="enable-background:new 0 0 170 56;" xml:space="preserve">
<style type="text/css">
	.st0{fill:#FB6B3F;}
	.st1{fill:#66CF8B;}
</style>
<g>
	<path class="st0" d="M58.9,32.6c0.1,0,0.2,0,0.3,0.1l0.8,0.9c-0.4,0.5-1,1-1.6,1.3s-1.4,0.4-2.3,0.4c-0.8,0-1.5-0.1-2.2-0.4
		s-1.2-0.7-1.6-1.1s-0.8-1.1-1-1.8c-0.2-0.7-0.4-1.4-0.4-2.2c0-0.8,0.1-1.6,0.4-2.2c0.3-0.7,0.6-1.3,1.1-1.8
		c0.5-0.5,1.1-0.9,1.8-1.1s1.4-0.4,2.3-0.4c0.8,0,1.5,0.1,2.1,0.4c0.6,0.3,1.1,0.6,1.5,1l-0.7,0.9c0,0.1-0.1,0.1-0.2,0.2
		s-0.1,0.1-0.3,0.1c-0.1,0-0.2,0-0.4-0.1c-0.1-0.1-0.3-0.2-0.5-0.3c-0.2-0.1-0.4-0.2-0.7-0.3c-0.3-0.1-0.6-0.1-1.1-0.1
		c-0.5,0-1,0.1-1.4,0.3c-0.4,0.2-0.8,0.4-1.1,0.8c-0.3,0.3-0.5,0.7-0.7,1.2c-0.2,0.5-0.3,1-0.3,1.6c0,0.6,0.1,1.2,0.3,1.6
		s0.4,0.9,0.7,1.2c0.3,0.3,0.6,0.6,1,0.7c0.4,0.2,0.8,0.3,1.3,0.3c0.3,0,0.5,0,0.7,0c0.2,0,0.4-0.1,0.6-0.1s0.4-0.1,0.5-0.3
		c0.2-0.1,0.3-0.2,0.5-0.4c0,0,0.1-0.1,0.2-0.1C58.8,32.6,58.8,32.6,58.9,32.6z"/>
	<path class="st0" d="M61.4,35.1v-7.7h1.1c0.2,0,0.3,0,0.4,0.1c0.1,0.1,0.1,0.2,0.2,0.4l0.1,0.9c0.3-0.5,0.6-0.9,1-1.1
		s0.8-0.4,1.2-0.4c0.4,0,0.7,0.1,0.9,0.3L66,29c0,0.1,0,0.2-0.1,0.2c0,0-0.1,0.1-0.2,0.1c-0.1,0-0.2,0-0.3-0.1
		c-0.1,0-0.3-0.1-0.5-0.1c-0.4,0-0.7,0.1-1,0.3c-0.3,0.2-0.5,0.5-0.7,0.9v4.8H61.4z"/>
	<path class="st0" d="M70.2,37.3c-0.1,0.1-0.1,0.2-0.2,0.3c-0.1,0.1-0.2,0.1-0.4,0.1h-1.4l1.4-3.1l-3.1-7.1h1.6c0.1,0,0.3,0,0.3,0.1
		c0.1,0.1,0.1,0.1,0.2,0.2l1.6,4c0.1,0.1,0.1,0.3,0.1,0.4c0,0.1,0.1,0.3,0.1,0.4c0-0.1,0.1-0.3,0.1-0.4c0-0.1,0.1-0.3,0.2-0.4l1.5-4
		c0-0.1,0.1-0.2,0.2-0.2c0.1-0.1,0.2-0.1,0.3-0.1h1.5L70.2,37.3z"/>
	<path class="st0" d="M75.5,37.7V27.5h1.1c0.1,0,0.2,0,0.3,0.1c0.1,0.1,0.1,0.1,0.2,0.3l0.2,0.7c0.3-0.4,0.7-0.6,1.1-0.9
		c0.4-0.2,0.9-0.3,1.4-0.3c0.4,0,0.8,0.1,1.2,0.3c0.3,0.2,0.6,0.4,0.9,0.8c0.3,0.3,0.4,0.7,0.6,1.2c0.1,0.5,0.2,1,0.2,1.7
		c0,0.6-0.1,1.1-0.2,1.6c-0.2,0.5-0.4,0.9-0.7,1.3c-0.3,0.4-0.6,0.6-1,0.8c-0.4,0.2-0.9,0.3-1.4,0.3c-0.4,0-0.8-0.1-1.1-0.2
		c-0.3-0.1-0.6-0.3-0.8-0.6v3.2H75.5z M79.1,28.8c-0.4,0-0.7,0.1-1,0.2c-0.3,0.2-0.5,0.4-0.8,0.7v3.4c0.2,0.3,0.4,0.4,0.7,0.5
		c0.2,0.1,0.5,0.2,0.8,0.2c0.3,0,0.5-0.1,0.8-0.2s0.4-0.3,0.6-0.5c0.2-0.2,0.3-0.5,0.4-0.8c0.1-0.3,0.1-0.7,0.1-1.2
		c0-0.4,0-0.8-0.1-1.1s-0.2-0.6-0.3-0.8S80,29,79.8,28.9C79.6,28.8,79.4,28.8,79.1,28.8z"/>
	<path class="st0" d="M86.5,35.3c-0.7,0-1.2-0.2-1.5-0.6c-0.4-0.4-0.5-0.9-0.5-1.6v-4.3h-0.8c-0.1,0-0.2,0-0.3-0.1s-0.1-0.2-0.1-0.3
		v-0.7l1.2-0.2l0.4-2.1c0-0.1,0.1-0.2,0.1-0.2c0.1-0.1,0.2-0.1,0.3-0.1h1v2.4h2v1.3h-2V33c0,0.2,0.1,0.4,0.2,0.6
		c0.1,0.1,0.3,0.2,0.5,0.2c0.1,0,0.2,0,0.3,0c0.1,0,0.1-0.1,0.2-0.1s0.1-0.1,0.2-0.1c0,0,0.1,0,0.1,0c0.1,0,0.1,0,0.1,0
		c0,0,0.1,0.1,0.1,0.1l0.6,0.9c-0.3,0.2-0.6,0.4-0.9,0.5C87.3,35.2,86.9,35.3,86.5,35.3z"/>
	<path class="st0" d="M93.1,27.3c0.6,0,1.1,0.1,1.6,0.3s0.9,0.4,1.2,0.8s0.6,0.8,0.8,1.2c0.2,0.5,0.3,1,0.3,1.6
		c0,0.6-0.1,1.2-0.3,1.6c-0.2,0.5-0.4,0.9-0.8,1.3c-0.3,0.3-0.7,0.6-1.2,0.8s-1,0.3-1.6,0.3c-0.6,0-1.1-0.1-1.6-0.3
		c-0.5-0.2-0.9-0.5-1.2-0.8c-0.3-0.3-0.6-0.8-0.8-1.3c-0.2-0.5-0.3-1-0.3-1.6c0-0.6,0.1-1.2,0.3-1.6c0.2-0.5,0.4-0.9,0.8-1.2
		c0.3-0.3,0.7-0.6,1.2-0.8C92,27.4,92.5,27.3,93.1,27.3z M93.1,33.8c0.6,0,1.1-0.2,1.4-0.6s0.5-1.1,0.5-1.9c0-0.8-0.2-1.5-0.5-1.9
		s-0.8-0.7-1.4-0.7c-0.7,0-1.1,0.2-1.4,0.7s-0.5,1.1-0.5,1.9c0,0.8,0.2,1.5,0.5,1.9C92,33.6,92.4,33.8,93.1,33.8z"/>
	<path class="st0" d="M108.2,24.3v1.6h-4.8v3h3.8v1.6h-3.8v3.1h4.8v1.6h-6.8V24.3H108.2z"/>
	<path class="st0" d="M111.8,24v11.1h-1.9V24H111.8z"/>
	<path class="st0" d="M117.1,27.3c0.5,0,0.9,0.1,1.3,0.2c0.4,0.2,0.8,0.4,1.1,0.7s0.5,0.7,0.7,1.1s0.2,0.9,0.2,1.5
		c0,0.1,0,0.3,0,0.3c0,0.1,0,0.2-0.1,0.2c0,0.1-0.1,0.1-0.1,0.1c-0.1,0-0.1,0-0.2,0h-4.8c0.1,0.8,0.3,1.4,0.6,1.7s0.9,0.6,1.5,0.6
		c0.3,0,0.6,0,0.8-0.1c0.2-0.1,0.4-0.1,0.6-0.2c0.2-0.1,0.3-0.2,0.4-0.2c0.1-0.1,0.2-0.1,0.4-0.1c0.1,0,0.1,0,0.2,0
		c0.1,0,0.1,0.1,0.1,0.1l0.5,0.7c-0.2,0.2-0.4,0.4-0.7,0.6c-0.3,0.2-0.5,0.3-0.8,0.4c-0.3,0.1-0.6,0.2-0.8,0.2
		c-0.3,0-0.6,0.1-0.8,0.1c-0.5,0-1-0.1-1.5-0.3s-0.9-0.4-1.2-0.8c-0.3-0.3-0.6-0.8-0.8-1.3c-0.2-0.5-0.3-1.1-0.3-1.8
		c0-0.5,0.1-1,0.3-1.5s0.4-0.9,0.7-1.2s0.7-0.6,1.2-0.8C116,27.4,116.5,27.3,117.1,27.3z M117.1,28.7c-0.5,0-1,0.2-1.3,0.5
		c-0.3,0.3-0.5,0.7-0.6,1.3h3.5c0-0.2,0-0.5-0.1-0.7c-0.1-0.2-0.2-0.4-0.3-0.6c-0.1-0.2-0.3-0.3-0.5-0.4
		C117.6,28.7,117.4,28.7,117.1,28.7z"/>
	<path class="st0" d="M121.9,35.1v-7.7h1.1c0.2,0,0.4,0.1,0.5,0.3l0.1,0.6c0.1-0.1,0.3-0.3,0.4-0.4c0.1-0.1,0.3-0.2,0.5-0.3
		c0.2-0.1,0.3-0.2,0.5-0.2c0.2-0.1,0.4-0.1,0.6-0.1c0.5,0,0.9,0.1,1.2,0.4c0.3,0.3,0.5,0.6,0.7,1c0.1-0.3,0.3-0.5,0.5-0.7
		c0.2-0.2,0.4-0.3,0.6-0.4c0.2-0.1,0.4-0.2,0.7-0.3s0.5-0.1,0.7-0.1c0.4,0,0.8,0.1,1.1,0.2c0.3,0.1,0.6,0.3,0.8,0.6s0.4,0.6,0.5,0.9
		c0.1,0.4,0.2,0.8,0.2,1.2v4.9h-1.9v-4.9c0-0.5-0.1-0.9-0.3-1.1c-0.2-0.2-0.5-0.4-0.9-0.4c-0.2,0-0.4,0-0.5,0.1
		c-0.2,0.1-0.3,0.2-0.4,0.3c-0.1,0.1-0.2,0.3-0.3,0.5c-0.1,0.2-0.1,0.4-0.1,0.6v4.9h-1.9v-4.9c0-0.5-0.1-0.9-0.3-1.1
		c-0.2-0.2-0.5-0.4-0.9-0.4c-0.3,0-0.5,0.1-0.7,0.2s-0.4,0.3-0.6,0.5v5.6H121.9z"/>
	<path class="st0" d="M137.7,27.3c0.5,0,0.9,0.1,1.3,0.2c0.4,0.2,0.8,0.4,1.1,0.7s0.5,0.7,0.7,1.1s0.2,0.9,0.2,1.5
		c0,0.1,0,0.3,0,0.3c0,0.1,0,0.2-0.1,0.2c0,0.1-0.1,0.1-0.1,0.1c-0.1,0-0.1,0-0.2,0h-4.8c0.1,0.8,0.3,1.4,0.6,1.7s0.9,0.6,1.5,0.6
		c0.3,0,0.6,0,0.8-0.1c0.2-0.1,0.4-0.1,0.6-0.2c0.2-0.1,0.3-0.2,0.4-0.2c0.1-0.1,0.2-0.1,0.4-0.1c0.1,0,0.1,0,0.2,0
		c0.1,0,0.1,0.1,0.1,0.1L141,34c-0.2,0.2-0.4,0.4-0.7,0.6c-0.3,0.2-0.5,0.3-0.8,0.4c-0.3,0.1-0.6,0.2-0.8,0.2
		c-0.3,0-0.6,0.1-0.8,0.1c-0.5,0-1-0.1-1.5-0.3s-0.9-0.4-1.2-0.8c-0.3-0.3-0.6-0.8-0.8-1.3c-0.2-0.5-0.3-1.1-0.3-1.8
		c0-0.5,0.1-1,0.3-1.5s0.4-0.9,0.7-1.2s0.7-0.6,1.2-0.8C136.6,27.4,137.1,27.3,137.7,27.3z M137.7,28.7c-0.5,0-1,0.2-1.3,0.5
		c-0.3,0.3-0.5,0.7-0.6,1.3h3.5c0-0.2,0-0.5-0.1-0.7c-0.1-0.2-0.2-0.4-0.3-0.6c-0.1-0.2-0.3-0.3-0.5-0.4
		C138.3,28.7,138,28.7,137.7,28.7z"/>
	<path class="st0" d="M142.5,35.1v-7.7h1.1c0.2,0,0.4,0.1,0.5,0.3l0.1,0.6c0.2-0.2,0.3-0.3,0.5-0.4c0.2-0.1,0.4-0.2,0.5-0.3
		c0.2-0.1,0.4-0.2,0.6-0.2c0.2,0,0.5-0.1,0.7-0.1c0.4,0,0.8,0.1,1.1,0.2c0.3,0.1,0.6,0.3,0.8,0.6c0.2,0.3,0.4,0.6,0.5,0.9
		s0.2,0.8,0.2,1.2v4.9h-1.9v-4.9c0-0.5-0.1-0.8-0.3-1.1c-0.2-0.3-0.5-0.4-1-0.4c-0.3,0-0.6,0.1-0.9,0.2c-0.3,0.1-0.5,0.3-0.8,0.6
		v5.6H142.5z"/>
	<path class="st0" d="M153.6,35.3c-0.7,0-1.2-0.2-1.5-0.6c-0.4-0.4-0.5-0.9-0.5-1.6v-4.3h-0.8c-0.1,0-0.2,0-0.3-0.1
		s-0.1-0.2-0.1-0.3v-0.7l1.2-0.2l0.4-2.1c0-0.1,0.1-0.2,0.1-0.2c0.1-0.1,0.2-0.1,0.3-0.1h1v2.4h2v1.3h-2V33c0,0.2,0.1,0.4,0.2,0.6
		c0.1,0.1,0.3,0.2,0.5,0.2c0.1,0,0.2,0,0.3,0c0.1,0,0.1-0.1,0.2-0.1s0.1-0.1,0.2-0.1c0,0,0.1,0,0.1,0c0.1,0,0.1,0,0.1,0
		c0,0,0.1,0.1,0.1,0.1l0.6,0.9c-0.3,0.2-0.6,0.4-0.9,0.5C154.3,35.2,154,35.3,153.6,35.3z"/>
	<path class="st0" d="M161.4,29c0,0.1-0.1,0.1-0.2,0.2c-0.1,0-0.1,0-0.2,0c-0.1,0-0.2,0-0.3-0.1c-0.1,0-0.2-0.1-0.4-0.2
		s-0.3-0.1-0.5-0.2c-0.2,0-0.4-0.1-0.6-0.1c-0.4,0-0.7,0.1-0.9,0.2s-0.3,0.4-0.3,0.6c0,0.2,0.1,0.3,0.2,0.4c0.1,0.1,0.3,0.2,0.4,0.3
		s0.4,0.2,0.6,0.2c0.2,0.1,0.5,0.1,0.7,0.2c0.2,0.1,0.5,0.2,0.7,0.3c0.2,0.1,0.4,0.2,0.6,0.4c0.2,0.2,0.3,0.3,0.4,0.6
		s0.2,0.5,0.2,0.8c0,0.4-0.1,0.7-0.2,1s-0.3,0.6-0.6,0.8c-0.3,0.2-0.6,0.4-1,0.5c-0.4,0.1-0.8,0.2-1.3,0.2c-0.3,0-0.5,0-0.8-0.1
		c-0.3,0-0.5-0.1-0.7-0.2s-0.4-0.2-0.6-0.3c-0.2-0.1-0.4-0.2-0.5-0.4l0.4-0.7c0.1-0.1,0.1-0.2,0.2-0.2s0.2-0.1,0.3-0.1
		s0.2,0,0.3,0.1s0.2,0.1,0.4,0.2c0.1,0.1,0.3,0.1,0.5,0.2s0.4,0.1,0.7,0.1c0.2,0,0.4,0,0.6-0.1c0.2-0.1,0.3-0.1,0.4-0.2
		s0.2-0.2,0.2-0.3c0-0.1,0.1-0.2,0.1-0.3c0-0.2-0.1-0.3-0.2-0.4c-0.1-0.1-0.3-0.2-0.4-0.3c-0.2-0.1-0.4-0.2-0.6-0.2
		c-0.2-0.1-0.5-0.1-0.7-0.2s-0.5-0.2-0.7-0.3s-0.4-0.2-0.6-0.4c-0.2-0.2-0.3-0.4-0.4-0.6c-0.1-0.2-0.2-0.5-0.2-0.9
		c0-0.3,0.1-0.6,0.2-0.9c0.1-0.3,0.3-0.5,0.6-0.7c0.2-0.2,0.5-0.4,0.9-0.5c0.4-0.1,0.8-0.2,1.3-0.2c0.5,0,1,0.1,1.4,0.3
		c0.4,0.2,0.8,0.4,1.1,0.7L161.4,29z"/>
</g>
<g>
	<g>
		<path class="st1" d="M17.9,28.9c-0.6,0.6-1.2,1.2-1.7,1.8c-1,1.2-1.6,2.2-1.9,3.2c1,0.1,1.9,0.9,1.9,2c0,0.3-0.1,0.6-0.2,0.9
			c2.1,0.5,5.8-0.2,10.2-2.3c-0.7-0.3-1.3-0.7-2-1.1C21.7,31.9,19.6,30.4,17.9,28.9z"/>
	</g>
	<g>
		<path class="st1" d="M26.1,22.4c-3.6-1.6-6.7-2.4-8.9-2.4c-1.5,0-2.6,0.4-3,1.1c-0.8,1.3,0.6,4,3.6,6.8c1.8-1.6,3.9-3.1,6.2-4.4
			C24.8,23,25.4,22.7,26.1,22.4z"/>
	</g>
	<g>
		<path class="st1" d="M36.1,28.9c-1.7,1.5-3.8,3-6.2,4.4c-0.7,0.4-1.3,0.7-2,1.1c4,1.9,7.5,2.6,9.7,2.4c-0.2-0.3-0.3-0.6-0.3-1
			c0-1.1,0.9-2,2-2c0.2,0,0.3,0,0.5,0.1c-0.3-0.9-0.9-2-2-3.2C37.3,30.1,36.7,29.5,36.1,28.9z"/>
	</g>
	<g>
		<path class="st1" d="M35.5,28.4c-1.7-1.5-3.8-3-6.1-4.3c-0.8-0.5-1.7-0.9-2.5-1.3c-0.8,0.4-1.6,0.8-2.5,1.3
			c-2.3,1.3-4.4,2.8-6.1,4.3c1.6,1.4,3.6,2.9,6.1,4.3c0.8,0.5,1.7,0.9,2.5,1.3c0.8-0.4,1.6-0.8,2.5-1.3
			C31.9,31.3,33.9,29.8,35.5,28.4z M27,31.4c-1.7,0-3-1.4-3-3s1.4-3,3-3s3,1.4,3,3S28.6,31.4,27,31.4z"/>
	</g>
	<g>
		<path class="st1" d="M36.1,27.9c3.1-2.9,4.4-5.5,3.6-6.8c-0.4-0.7-1.5-1.1-3-1.1c-2.2,0-5.3,0.8-8.9,2.4c0.7,0.3,1.3,0.7,2,1.1
			C32.2,24.8,34.3,26.3,36.1,27.9z"/>
	</g>
	<g>
		<path class="st1" d="M26.5,9C15.8,9,7,17.7,7,28.5C7,39.3,15.8,48,26.5,48C37.3,48,46,39.3,46,28.5C46,17.7,37.3,9,26.5,9z
			 M39.2,37.8c-0.4,0-0.8-0.1-1.1-0.4c-0.4,0.1-0.9,0.1-1.4,0.1c-2.5,0-6-1-9.7-2.8c-3.7,1.8-7.2,2.8-9.7,2.8
			c-0.7,0-1.4-0.1-1.9-0.2c-0.3,0.3-0.8,0.5-1.3,0.5c-1.1,0-2-0.9-2-2c0-0.9,0.6-1.6,1.3-1.9c0.3-1.1,1-2.4,2.2-3.8
			c0.5-0.6,1.1-1.2,1.7-1.8c-3.2-3-4.7-5.9-3.7-7.7c1.4-2.4,7-1.8,13.4,1.3c6.4-3.1,12-3.7,13.4-1.3c1,1.8-0.5,4.7-3.7,7.7
			c0.6,0.6,1.2,1.2,1.7,1.8c1.3,1.6,2.1,3,2.3,4.2c0.4,0.4,0.6,0.9,0.6,1.4C41.2,36.9,40.3,37.8,39.2,37.8z"/>
	</g>
</g>
</svg>
