<?xml version="1.0" encoding="utf-8"?>
<!-- Generator: Adobe Illustrator 21.0.2, SVG Export Plug-In . SVG Version: 6.00 Build 0)  -->
<svg version="1.1" id="Layer_1" xmlns="http://www.w3.org/2000/svg" xmlns:xlink="http://www.w3.org/1999/xlink" x="0px" y="0px"
	 viewBox="0 0 42.8 42" style="enable-background:new 0 0 42.8 42;" xml:space="preserve">
<style type="text/css">
	.st0{fill:#66CF8B;}
</style>
<g>
	<g>
		<path class="st0" d="M12.9,21.6c-0.6,0.6-1.2,1.2-1.7,1.8c-1,1.2-1.6,2.2-1.9,3.2c1,0.1,1.9,0.9,1.9,2c0,0.3-0.1,0.6-0.2,0.9
			c2.1,0.5,5.8-0.2,10.2-2.3c-0.7-0.3-1.3-0.7-2-1.1C16.7,24.6,14.6,23.1,12.9,21.6z"/>
	</g>
	<g>
		<path class="st0" d="M21.1,15.1c-3.6-1.6-6.7-2.4-8.9-2.4c-1.5,0-2.6,0.4-3,1.1c-0.8,1.3,0.6,4,3.6,6.8c1.8-1.6,3.9-3.1,6.2-4.4
			C19.8,15.8,20.4,15.5,21.1,15.1z"/>
	</g>
	<g>
		<path class="st0" d="M31.1,21.6c-1.7,1.5-3.8,3-6.2,4.4c-0.7,0.4-1.3,0.7-2,1.1c4,1.9,7.5,2.6,9.7,2.4c-0.2-0.3-0.3-0.6-0.3-1
			c0-1.1,0.9-2,2-2c0.2,0,0.3,0,0.5,0.1c-0.3-0.9-0.9-2-2-3.2C32.3,22.9,31.7,22.3,31.1,21.6z"/>
	</g>
	<g>
		<path class="st0" d="M30.5,21.1c-1.7-1.5-3.8-3-6.1-4.3c-0.8-0.5-1.7-0.9-2.5-1.3c-0.8,0.4-1.6,0.8-2.5,1.3
			c-2.3,1.3-4.4,2.8-6.1,4.3c1.6,1.4,3.6,2.9,6.1,4.3c0.8,0.5,1.7,0.9,2.5,1.3c0.8-0.4,1.6-0.8,2.5-1.3C26.9,24,28.9,22.5,30.5,21.1
			z M22,24.1c-1.7,0-3-1.4-3-3s1.4-3,3-3s3,1.4,3,3S23.6,24.1,22,24.1z"/>
	</g>
	<g>
		<path class="st0" d="M31.1,20.6c3.1-2.9,4.4-5.5,3.6-6.8c-0.4-0.7-1.5-1.1-3-1.1c-2.2,0-5.3,0.8-8.9,2.4c0.7,0.3,1.3,0.7,2,1.1
			C27.2,17.5,29.3,19,31.1,20.6z"/>
	</g>
	<g>
		<path class="st0" d="M21.5,1.8C10.8,1.8,2,10.5,2,21.3s8.8,19.5,19.5,19.5C32.3,40.8,41,32,41,21.3S32.3,1.8,21.5,1.8z M34.2,30.5
			c-0.4,0-0.8-0.1-1.1-0.4c-0.4,0.1-0.9,0.1-1.4,0.1c-2.5,0-6-1-9.7-2.8c-3.7,1.8-7.2,2.8-9.7,2.8c-0.7,0-1.4-0.1-1.9-0.2
			c-0.3,0.3-0.8,0.5-1.3,0.5c-1.1,0-2-0.9-2-2c0-0.9,0.6-1.6,1.3-1.9c0.3-1.1,1-2.4,2.2-3.8c0.5-0.6,1.1-1.2,1.7-1.8
			c-3.2-3-4.7-5.9-3.7-7.7c1.4-2.4,7-1.8,13.4,1.3c6.4-3.1,12-3.7,13.4-1.3c1,1.8-0.5,4.7-3.7,7.7c0.6,0.6,1.2,1.2,1.7,1.8
			c1.3,1.6,2.1,3,2.3,4.2c0.4,0.4,0.6,0.9,0.6,1.4C36.2,29.7,35.3,30.5,34.2,30.5z"/>
	</g>
</g>
</svg>
